<svg width="47" height="48" viewBox="0 0 47 48" fill="none" xmlns="http://www.w3.org/2000/svg">
<path d="M27.2217 18.4352C27.2217 16.8243 28.5276 15.5185 30.1384 15.5185C31.7492 15.5185 33.0551 16.8243 33.0551 18.4352C33.0551 20.046 31.7492 21.3518 30.1384 21.3518C28.5276 21.3518 27.2217 20.046 27.2217 18.4352Z" fill="#E0E0E0"/>
<path fill-rule="evenodd" clip-rule="evenodd" d="M14.1308 9.99344C20.254 9.46117 26.4117 9.46117 32.5349 9.99344L35.4715 10.2487C38.2813 10.493 40.5576 12.6312 40.9771 15.4203C41.8591 21.2861 41.8591 27.2509 40.9771 33.1167C40.5576 35.9058 38.2813 38.044 35.4715 38.2883L32.5349 38.5435C26.4118 39.0758 20.254 39.0758 14.1308 38.5435L11.1942 38.2883C8.38438 38.044 6.10807 35.9058 5.68866 33.1167C4.80658 27.2509 4.80658 21.2861 5.68866 15.4203C6.10807 12.6312 8.38438 10.493 11.1942 10.2487L14.1308 9.99344ZM32.2823 12.8992C26.3272 12.3815 20.3385 12.3815 14.3834 12.8992L11.4468 13.1544C9.98007 13.2819 8.79184 14.3981 8.5729 15.854C8.07214 19.1841 7.87031 22.5477 7.96743 25.9048L15.4961 18.3762C15.7801 18.0922 16.1686 17.9379 16.5701 17.9497C16.9716 17.9615 17.3504 18.1383 17.6172 18.4385L24.7562 26.4698L29.6772 24.8294C30.2276 24.646 30.8343 24.8062 31.2224 25.2374L38.0651 32.8404C38.0756 32.7884 38.0848 32.7359 38.0928 32.683C38.9317 27.1047 38.9317 21.4323 38.0928 15.854C37.8739 14.3981 36.6856 13.2819 35.2189 13.1544L32.2823 12.8992ZM36.2054 35.134L29.6934 27.8985L24.7662 29.5409C24.2128 29.7254 23.6027 29.5623 23.2151 29.1263L16.4648 21.5322L8.2132 29.7838C8.30805 30.7524 8.42796 31.7191 8.5729 32.683C8.79184 34.1389 9.98007 35.2551 11.4468 35.3826L14.3834 35.6378C20.3385 36.1555 26.3272 36.1555 32.2823 35.6378L35.2189 35.3826C35.5664 35.3523 35.8983 35.2666 36.2054 35.134Z" fill="#E0E0E0"/>
</svg>
