<svg width="48" height="49" viewBox="0 0 48 49" fill="none" xmlns="http://www.w3.org/2000/svg">
<g clip-path="url(#clip0_3073_664)">
<path d="M48 24.293C48 11.0381 37.2548 0.292969 24 0.292969C10.7452 0.292969 0 11.0381 0 24.293C0 37.5478 10.7452 48.293 24 48.293C37.2548 48.293 48 37.5478 48 24.293Z" fill="#EB6945"/>
<path d="M19.8372 22.8696C19.4857 23.2211 18.9159 23.2211 18.5644 22.8696C18.2129 22.5181 18.2129 21.9483 18.5644 21.5968L23.3644 16.7968C23.7159 16.4453 24.2857 16.4453 24.6372 16.7968L29.4372 21.5968C29.7887 21.9483 29.7887 22.5181 29.4372 22.8696C29.0857 23.2211 28.5159 23.2211 28.1644 22.8696L24.9008 19.606V31.2332C24.9008 31.7303 24.4979 32.1332 24.0008 32.1332C23.5037 32.1332 23.1008 31.7303 23.1008 31.2332V19.606L19.8372 22.8696Z" fill="white"/>
</g>
<defs>
<clipPath id="clip0_3073_664">
<rect width="48" height="49" fill="white"/>
</clipPath>
</defs>
</svg>
