<svg width="41" height="38" viewBox="0 0 41 38" fill="none" xmlns="http://www.w3.org/2000/svg">
<path d="M40.1123 16.1584C40.1123 7.24855 31.1156 0 20.0561 0C8.99798 0 0 7.24855 0 16.1584C0 24.146 7.13519 30.8356 16.7733 32.1005C17.4266 32.2402 18.3155 32.528 18.5404 33.0822C18.7426 33.5858 18.6727 34.3742 18.6049 34.8828C18.6049 34.8828 18.3697 36.2878 18.3189 36.587C18.2317 37.0905 17.9159 38.5559 20.0561 37.6604C22.1968 36.7649 31.6065 30.9084 35.8144 26.1C38.7212 22.9357 40.1123 19.7243 40.1123 16.1584Z" fill="white"/>
<path d="M15.8751 11.9258H14.4812C14.2675 11.9258 14.0938 12.1051 14.0938 12.3253V21.2833C14.0938 21.5039 14.2675 21.6829 14.4812 21.6829H15.8751C16.0886 21.6829 16.262 21.5039 16.262 21.2833V12.3253C16.262 12.1051 16.0886 11.9258 15.8751 11.9258Z" fill="#363636"/>
<path d="M25.6132 11.9258H24.1458C23.9209 11.9258 23.7385 12.1051 23.7385 12.3253V17.6473L19.5617 12.1035C19.552 12.0892 19.5411 12.0759 19.53 12.0629L19.5271 12.0606C19.5192 12.0514 19.511 12.0436 19.5026 12.0357C19.5026 12.0357 19.4979 12.0314 19.495 12.029C19.4882 12.0227 19.481 12.0168 19.4734 12.0112C19.4701 12.0081 19.4665 12.0058 19.4629 12.0029C19.4557 11.9982 19.4489 11.9932 19.4417 11.9889C19.4377 11.986 19.4337 11.9836 19.4292 11.9816C19.422 11.9773 19.4148 11.973 19.4076 11.9696C19.4033 11.9676 19.3991 11.9652 19.3948 11.9636C19.3872 11.96 19.3795 11.9564 19.3716 11.9537C19.3667 11.9521 19.3627 11.9507 19.3582 11.949C19.3503 11.9463 19.3422 11.9434 19.3339 11.9415C19.3294 11.94 19.3247 11.9391 19.3198 11.9375C19.3117 11.9361 19.3042 11.9341 19.2966 11.9324C19.291 11.9317 19.2849 11.9308 19.2793 11.9305C19.2721 11.9288 19.2649 11.9285 19.2577 11.9278C19.2508 11.9269 19.244 11.9269 19.2368 11.9265C19.2315 11.9265 19.2276 11.9258 19.2223 11.9258H17.7555C17.5306 11.9258 17.3477 12.1051 17.3477 12.3253V21.2833C17.3477 21.5039 17.5306 21.6829 17.7555 21.6829H19.2223C19.4478 21.6829 19.6302 21.5039 19.6302 21.2833V15.9629L23.8122 21.5138C23.8411 21.554 23.8768 21.5866 23.9157 21.6127L23.9197 21.6158C23.9281 21.621 23.9366 21.6261 23.9451 21.6308C23.949 21.6331 23.9526 21.6347 23.9566 21.6367C23.9627 21.6403 23.9694 21.6434 23.9759 21.6463C23.9827 21.649 23.9887 21.6517 23.9959 21.6544C23.9999 21.656 24.004 21.6576 24.008 21.6587C24.0175 21.6623 24.0263 21.665 24.0357 21.6679L24.0417 21.669C24.075 21.6776 24.1098 21.6829 24.1458 21.6829H25.6132C25.8385 21.6829 26.0207 21.5039 26.0207 21.2833V12.3253C26.0207 12.1051 25.8385 11.9258 25.6132 11.9258Z" fill="#363636"/>
<path d="M12.6124 19.4398H8.72767V12.3261C8.72767 12.1051 8.54979 11.9258 8.331 11.9258H6.90094C6.68161 11.9258 6.50391 12.1051 6.50391 12.3261V21.282C6.50391 21.3896 6.54644 21.4877 6.61474 21.5594C6.61637 21.5614 6.61799 21.5634 6.62033 21.5653C6.62231 21.5673 6.6243 21.569 6.6261 21.5709C6.69765 21.6403 6.7937 21.6829 6.9004 21.6829H12.6124C12.8315 21.6829 13.0085 21.5032 13.0085 21.282V19.8401C13.0085 19.6189 12.8315 19.4398 12.6124 19.4398Z" fill="#363636"/>
<path d="M33.2139 14.1688C33.4331 14.1688 33.6101 13.9899 33.6101 13.7686V12.3266C33.6101 12.1055 33.4331 11.9258 33.2139 11.9258H27.5025C27.3954 11.9258 27.2981 11.969 27.2266 12.0388C27.225 12.0404 27.223 12.0417 27.2219 12.0431C27.2195 12.0456 27.2176 12.048 27.2156 12.0503C27.1476 12.122 27.1055 12.219 27.1055 12.3261V21.2824C27.1055 21.39 27.148 21.4877 27.2163 21.5594C27.2179 21.5614 27.2199 21.5639 27.2219 21.5653C27.2235 21.5673 27.2259 21.5693 27.2277 21.5709C27.2988 21.64 27.3953 21.6829 27.5016 21.6829H33.2139C33.4331 21.6829 33.6101 21.5032 33.6101 21.2824V19.8401C33.6101 19.6195 33.4331 19.4398 33.2139 19.4398H29.3296V17.9256H33.2139C33.4331 17.9256 33.6101 17.7464 33.6101 17.5253V16.0833C33.6101 15.8622 33.4331 15.6825 33.2139 15.6825H29.3296V14.1688H33.2139Z" fill="#363636"/>
</svg>
