<svg width="40" height="30" viewBox="0 0 40 30" fill="none" xmlns="http://www.w3.org/2000/svg">
<path d="M38.8203 5.20599C38.3643 3.4335 37.0208 2.03767 35.3148 1.56405C32.2231 0.703125 19.8245 0.703125 19.8245 0.703125C19.8245 0.703125 7.42589 0.703125 4.33381 1.56405C2.62783 2.03767 1.28432 3.4335 0.828357 5.20599C0 8.41828 0 15.1209 0 15.1209C0 15.1209 0 21.8234 0.828357 25.0359C1.28432 26.8084 2.62783 28.2042 4.33381 28.6782C7.42589 29.5387 19.8245 29.5387 19.8245 29.5387C19.8245 29.5387 32.2231 29.5387 35.3148 28.6782C37.0208 28.2042 38.3643 26.8084 38.8203 25.0359C39.649 21.8234 39.649 15.1209 39.649 15.1209C39.649 15.1209 39.649 8.41828 38.8203 5.20599Z" fill="white"/>
<path d="M15.418 21.5277V8.91211L28.0336 15.2201L15.418 21.5277Z" fill="#363636"/>
</svg>
