<svg width="596" height="275" viewBox="0 0 596 275" fill="none" xmlns="http://www.w3.org/2000/svg">
<rect width="596" height="275" rx="10" fill="#D9D9D9"/>
<path d="M241.75 97.2988C241.75 87.8707 241.75 83.1567 244.679 80.2278C247.608 77.2988 252.322 77.2988 261.75 77.2988H334.25C343.678 77.2988 348.392 77.2988 351.321 80.2278C354.25 83.1567 354.25 87.8707 354.25 97.2988V169.799C354.25 179.227 354.25 183.941 351.321 186.87C348.392 189.799 343.678 189.799 334.25 189.799H261.75C252.322 189.799 247.608 189.799 244.679 186.87C241.75 183.941 241.75 179.227 241.75 169.799V97.2988Z" stroke="white" stroke-opacity="0.5" stroke-width="6"/>
<path fill-rule="evenodd" clip-rule="evenodd" d="M243.75 148.048L246.996 151.295L277.194 121.097C277.601 120.69 277.938 120.353 278.235 120.066C278.405 120.443 278.593 120.881 278.82 121.41L294.079 157.015L294.127 157.127L294.127 157.127C294.345 157.637 294.623 158.286 294.939 158.802C295.312 159.408 296.103 160.44 297.581 160.725C299.059 161.009 300.176 160.344 300.748 159.92C301.233 159.559 301.732 159.06 302.124 158.667L302.21 158.581L322.293 138.498C322.573 138.218 322.8 137.991 323 137.797C323.2 137.991 323.427 138.218 323.707 138.498L345.879 160.67L350.121 156.427L327.95 134.255L327.852 134.158L327.852 134.158C327.272 133.577 326.645 132.95 326.045 132.492C325.341 131.955 324.334 131.377 323 131.377C321.666 131.377 320.659 131.955 319.955 132.492C319.355 132.95 318.728 133.577 318.148 134.158L318.05 134.255L299.012 153.294L284.335 119.047L284.265 118.885C283.8 117.797 283.328 116.696 282.816 115.864C282.246 114.937 281.259 113.726 279.521 113.391C277.782 113.057 276.417 113.815 275.543 114.463C274.759 115.046 273.912 115.893 273.076 116.73L273.076 116.73L272.951 116.855L243.75 146.056V148.048Z" fill="white" fill-opacity="0.5"/>
<circle cx="326.125" cy="105.424" r="9.375" fill="white" fill-opacity="0.5"/>
</svg>
